<?xml version="1.0" encoding="utf-8"?>
<!-- Generator: Adobe Illustrator 25.2.1, SVG Export Plug-In . SVG Version: 6.00 Build 0)  -->
<svg version="1.1" id="Ebene_1" xmlns="http://www.w3.org/2000/svg" xmlns:xlink="http://www.w3.org/1999/xlink" x="0px" y="0px"
	 viewBox="0 0 1366 768" style="enable-background:new 0 0 1366 768;" xml:space="preserve">
<style type="text/css">
	.st0{fill:#FFFFFF;}
</style>
<g id="DYAUYP_1_">
	<g>
		<path class="st0" d="M691.4,167.2c0,145.4,0,290.1,0,435.3c-5.6,0-11,0-16.3,0c-3.5,17.9,4.6,27.7,20.9,27.6
			c66.8-0.2,133.6,0,200.4,0c17.9,0,27.9-7.8,31.7-24.7c-8.6-3.4-17.2-6.7-26-10.2c-4.3,7.4-8.6,14.7-13.4,23
			c-12.1-6.9-24.1-13.7-36.6-20.7c4.7-8.1,9-15.7,13.6-23.6c-21.7-15.6-40.6-34.2-56.3-56.3c-7.7,4.4-15.1,8.7-23.4,13.4
			c-7-12.1-14-24.1-21.1-36.3c8.2-4.8,15.6-9.1,23.1-13.4c-2.9-7.4-5.8-14.6-8.4-21.9c-6-16.8-9.8-34.2-11.5-52
			c-0.3-2.9-1.5-3.4-3.9-3.3c-7.5,0.1-15,0-23.2,0c0-14.2,0-28,0-42.1c9.2,0,17.7,0,26.7,0c2.6-26.9,9.3-52.4,20.7-77
			c-7.6-4.4-15-8.8-23.2-13.5c6.9-12.2,13.7-24.2,20.7-36.5c8.2,4.7,15.8,9,23.6,13.6c15.6-21.9,34.3-40.5,56.3-56.3
			c-4.4-7.6-8.6-15-13.4-23.4c12-7,24-13.9,36.4-21.1c4.7,8,9,15.5,13.6,23.3c24.5-11.3,49.9-18.1,76.9-20.6c0-8.9,0-17.4,0-26.7
			c14.1,0,27.9,0,42.3,0c0,7.9,0.1,15.3-0.1,22.6c-0.1,3,0.6,4.3,4,4.6c23.7,2.4,46.4,8.4,68.2,18c1.5,0.7,3.1,1.2,4.9,2
			c4.4-7.5,8.7-14.9,13.4-23.1c12.2,6.9,24.2,13.7,36.6,20.8c-4.7,8.2-9,15.7-13.5,23.6c21.9,15.7,40.6,34.3,56.3,56.3
			c7.7-4.4,15.1-8.6,23.4-13.4c7,12.2,14,24.1,21,36.4c-8.2,4.8-15.6,9.1-23.3,13.5c11.2,24.5,18.1,50,20.6,76.9
			c8.9,0,17.5,0,27.2,0c0,10.8,0.3,21.3-0.1,31.8c-0.4,10.4-0.7,10.4-11.3,10.4c-4.7,0-9.5,0-14.2,0.1c-0.4,0-0.8,0.2-1.6,0.4
			c-2.6,26.5-9.3,52-20.6,76.5c7.6,4.5,15.1,8.8,23.2,13.6c-7,12.3-13.8,24.3-20.8,36.5c-8.2-4.7-15.8-9-23.6-13.5
			c-15.6,21.9-34.3,40.5-56.3,56.3c4.4,7.7,8.7,15.2,13.4,23.4c-12.2,7.1-24.2,14-36.4,21c-4.8-8.2-9.1-15.6-13.6-23.3
			c-24.5,11.3-50,18-77,20.7c0,8.9,0,17.5,0,26.8c-14.1,0-27.8,0-42,0c0-9.2,0-17.9,0-26.3c-12.8-2.3-25.1-4.4-37.6-6.6
			c-0.2,0.5-0.5,1.2-0.8,2c-7.1,22-21.5,32.5-44.7,32.5c-58.7,0-117.4,0-176.1,0c-8.8,0-17.5,0.1-26.3,0
			c-15.8-0.3-29.2-10.4-32.2-24.8c-1.1-5.2-0.9-10.7-1.4-16.6c-24.7,0-49.4,0-75.3,0c7.8-2,14.5-3.2,20.9-5.5
			c20.7-7.5,31-23.4,34.4-44.4c1.1-6.7,1.6-13.6,1.6-20.3c0.1-103.1,0.1-206.2,0.1-309.3c0-1,0-1.9,0-2.9c-0.3-0.1-0.6-0.2-1-0.4
			C581,345.9,521.3,472,461.3,598.7C398,474.7,335,351.4,272.1,228.2c-0.3,0.1-0.6,0.2-0.9,0.2c0,84.2,0,168.4,0,252.9
			c-6.2,0-12,0-18.4,0c0,7.1-0.1,13.8,0.1,20.6c0,0.9,1.1,1.8,1.8,2.7c11,12.7,16.9,27.1,16.5,44.2c-0.4,17.4-0.1,34.8-0.1,52.8
			c-4.8-1.3-9.3-2.4-13.7-3.6c-19.5-5.5-39-11-58.6-16.4c-2.6-0.7-3.6-1.7-3.5-4.5c0.1-17.4,0-34.8,0.1-52.2c0-9.8,3.2-18.5,9.7-26
			c1.3-1.4,1.9-3.9,1.9-6c0.1-41.5,0.1-82.9,0.1-124.4c0-49,0-98,0.1-146.9c0-3.6-1.1-5.9-3.9-8.1c-13.4-10.5-29-14.9-45.5-17
			c-7.6-0.9-15.2-1.3-23.2-1.9c0-8.8,0-17.8,0-27.3c26.7,0,53.4,0,81.1,0c-1.1-2-1.7-3.3-2.5-4.5c-7.6-11.4-18.9-17.3-31.5-21.3
			c-17.9-5.7-36.6-6.9-55.2-7.6c-6.8-0.3-13.6,0-20.7,0c0-3.9,0-7.1,0-10.8c54.9,0,109.8,0,165.1,0c0,14.5,0,29,0,44
			c1.8,0,3.3,0,4.7,0c13.1,0,26.2,0.1,39.2-0.1c3.6-0.1,5.4,1,7,4.2c50.3,95.5,100.8,191,150.9,286.6c3,5.7,7.2,3.5,11.2,4.2
			c3.9,0.7,4.5-2.2,5.8-4.6c47.4-95.3,94.8-190.6,142-285.9c1.7-3.4,3.6-4.4,7.3-4.4c15.7,0.2,31.4,0.1,47.2,0.1
			C687.9,167.2,689.4,167.2,691.4,167.2z M953.4,519c-76.1-27.6-113.3-107.1-90.1-179.7c23.1-72.2,96.6-113.2,171.2-96
			c70.7,16.4,118.7,87.3,108,159.8c-5.4,36.8-22.5,67.4-51.3,90.8c-36.5,29.7-78.3,38.5-124.5,29c-5.9,20.4-11.8,40.6-17.7,60.8
			c90.1,25.3,206.8-19.1,246.9-131.8c40.3-113.3-23.2-235.9-139.9-268.7c-115.4-32.5-231.1,37.9-257.7,152
			c-27.4,117.9,47.8,217.3,137.3,244.7C941.5,559.6,947.4,539.4,953.4,519z M974.1,497.3c50.2,13,115.4-12.6,137.4-76.2
			c21.6-62.5-12.6-130.2-75.6-150.4c-62.3-20-129.7,15.3-148.3,77.8C868.2,413.6,906,475,960.8,493.6c5.2-18,10.4-35.9,15.7-54
			c-1.5-0.8-2.7-1.5-3.9-2.1c-27.2-14.1-40-44.8-30.7-73.5s37.7-46,67.9-41.6c30.6,4.5,53.8,33.8,51.6,64
			c-2.3,32.4-29.2,58.2-62.4,57.8c-3,0-7-1.4-8.8,0c-2.1,1.6-2.3,5.7-3.2,8.7C982.6,467.7,978.4,482.5,974.1,497.3z M267.6,597.3
			c0.1-1.3,0.2-2.2,0.2-3.2c0-16.7,0.4-33.4-0.1-50.1c-0.7-21-10.9-36.9-28.7-47.9c-2.9-1.8-4.2-3.4-4.2-7
			c0.1-80.4,0.1-160.8,0.1-241.3c0-3.8,0-7.5,0.3-11.3c0.8-9.7,2.9-19,8.2-27.3c8.9-13.9,23.9-17.9,38.5-10.2
			c8.6,4.6,15.2,11.4,20,19.6c4.8,8.3,9.2,16.8,13.5,25.4c42.5,82.7,85,165.3,127.6,248c2.8,5.4,6.2,10.6,10.2,15.2
			c8.1,9.3,18.2,10.1,27.6,2c4.9-4.2,9.5-9.2,12.9-14.6c7.2-11.7,14.2-23.6,20.2-35.9c39.5-81.1,78.6-162.3,118-243.4
			c2.4-5,5.2-9.8,8.4-14.3c2.8-3.9,6.1-8.5,11.6-7.5c5.6,1,7.9,6.1,9,11c1.4,6.9,2.6,14,2.6,21c0.1,127.7,0.3,255.4,0,383.2
			c-0.1,21.6,16.4,32.1,31.8,32c67.2-0.2,134.4,0,201.6-0.1c21.8,0,35.2-10.3,41.3-31.2c20.8-71.5,41.6-143,62.4-214.4
			c1.1-3.7,2.4-7.4,3.1-11.2c0.2-1.3-1.1-4-2.1-4.2c-1.5-0.2-3.4,0.9-4.7,2c-0.7,0.5-0.7,2-1,3.1c-21.5,73.7-42.9,147.5-64.3,221.2
			c-5.7,19.5-15.8,27.2-35.5,27.2c-66.6,0-133.3,0-199.9,0c-16.6,0-24.8-8.2-24.8-24.8c0-127.2,0-254.3,0-381.5
			c0-3.2,0.1-6.4-0.1-9.6c-0.6-8.4-2.1-16.6-6.9-23.7c-5.7-8.4-14.6-10-22.8-3.9c-2.7,2-5.3,4.6-7.3,7.4c-3,4.3-5.7,8.9-8,13.6
			c-31.5,65-62.9,130.1-94.5,195c-11.8,24.2-23.5,48.5-36.1,72.3c-4.7,8.8-11.2,16.9-18,24.3c-7,7.6-13.3,6.9-19.5-1.2
			c-4.4-5.8-8.1-12.3-11.5-18.8c-44.7-86-88.9-172.2-133.1-258.3c-4.7-9.1-10.3-17.5-18.1-24.3c-10.5-9-22.4-14.2-36.5-10.6
			c-13.5,3.4-21.1,13.2-26.2,25.4c-4.4,10.6-5.3,21.8-5.3,33.1c0,80.1,0,160.3,0.1,240.4c0,3.5-0.7,5-4.5,5c-2.5,0-5.2,1-7.5,2.2
			c-11.6,6.1-16.8,16.3-17,29c-0.3,16.8,0,33.7-0.1,50.5c0,2.8,0.9,3.8,3.6,4.4c7.4,1.8,14.7,4,22.1,6.1
			C238.6,589.2,253,593.3,267.6,597.3z M997.3,417.6c16.5,2.8,33.5-9.8,37.4-27.4c4-18.1-7.3-36.6-25.3-41.3
			c-18.7-4.9-37.5,5.5-42.9,23.6c-4.9,16.5,3.4,36.3,17.5,41.1c0.9-2.9,1.6-5.9,2.7-8.8c1.2-3.2,0.9-5.4-1.7-8
			c-6.3-6.4-7.3-16.1-3-24c4.1-7.5,12.9-12,21-10.7c10.3,1.7,17.6,9.5,18.1,19.4c0.4,10.8-6.1,19.2-16.8,21.8
			c-1.2,0.3-2.9,1.2-3.3,2.3C999.4,409.5,998.5,413.4,997.3,417.6z"/>
		<path class="st0" d="M260.8,644.8c-16-4.5-31.2-8.7-46.4-13c-9-2.5-9-2.6-9-11.8s0-18.4,0-27.5c0-1.3,0-2.7,0-4.6
			c11.5,3.2,22.4,6.2,33.4,9.3c6.4,1.8,12.9,3.5,19.2,5.4c1.1,0.3,2.7,1.8,2.7,2.8C260.9,618.3,260.8,631.2,260.8,644.8z
			 M257.5,640.5c0-12,0-23.3,0-34.9c-16.2-4.5-32.3-9.1-48.6-13.6c0,12,0,23.5,0,35C225,631.6,241,636,257.5,640.5z"/>
		<path class="st0" d="M1086.8,232.9c-4.3,7.4-8.4,14.6-12.8,22.2c-23-12.7-47.4-19.6-73.6-19.6c-26.2,0-50.5,6.6-73.9,19.6
			c-4.3-7.4-8.5-14.8-12.8-22.1C961.9,203.2,1032.6,200.4,1086.8,232.9z"/>
		<path class="st0" d="M852.4,382.8c2.1,56.1,26.8,98.5,73.9,128c-4.3,7.4-8.5,14.7-12.7,21.9c-47.2-20.3-92.1-98-86.5-149.9
			c4.2,0,8.4,0,12.6,0C843.9,382.8,848,382.8,852.4,382.8z"/>
		<path class="st0" d="M1147.7,383.1c8.7,0,17,0,25.9,0c0.1,23.5-4.5,45.9-13.7,67.4c-15.1,35.4-39.4,62.7-72.9,82.6
			c-4.3-7.4-8.5-14.7-13-22.5c22.6-13.4,40.7-31.2,53.8-53.9C1140.9,434,1147.3,409.4,1147.7,383.1z"/>
		<path class="st0" d="M250.2,627.6c-4.3-1.1-7.9-2-11.4-3.1c-0.8-0.3-1.8-1.7-1.8-2.6c-0.2-3.4-0.1-6.9-0.1-11
			c4.2,1.1,8,2,11.7,3.3c0.7,0.2,1.5,1.6,1.5,2.5C250.3,620.1,250.2,623.5,250.2,627.6z M246.7,623.2c0-2.2,0-4.2,0-6.3
			c-1.2-0.4-2.2-0.8-3.2-1.1c-1-0.2-2-0.3-3.1-0.5C239.6,621.8,239.6,621.8,246.7,623.2z"/>
		<path class="st0" d="M229.4,621.8c-4.6-1.3-8.9-2.4-13.2-3.6c0-4.4,0-8.5,0-13.1c3.9,1.1,7.7,1.9,11.3,3.1
			c0.8,0.3,1.7,1.7,1.8,2.7C229.5,614.4,229.4,617.8,229.4,621.8z M225.8,617.3c0.8-6.8,0.6-7.1-6.2-7.4
			C218.9,616.2,218.9,616.2,225.8,617.3z"/>
	</g>
</g>
</svg>
